<mxfile host="app.diagrams.net" modified="2024-09-25T12:25:31.323Z" agent="Mozilla/5.0 (Macintosh; Intel Mac OS X 10_15_7) AppleWebKit/537.36 (KHTML, like Gecko) Chrome/128.0.0.0 Safari/537.36" version="24.2.3" etag="FVXoFeN3Dkb1hnFZFbms" type="github">
  <diagram name="Page-1" id="80qlmy9kEpydGfejcpLN">
    <mxGraphModel>
      <root>
        <mxCell id="0" />
        <mxCell id="1" parent="0" />
      </root>
    </mxGraphModel>
  </diagram>
</mxfile>
